solid ascii
  facet normal 0.000000e+00 -1.000000e+00 0.000000e+00
    outer loop
      vertex   6.009575e+01 2.602532e+01 0.000000e+00
      vertex   6.009575e+01 2.602532e+01 2.500000e+01
      vertex   -2.490425e+01 2.602532e+01 2.500000e+01
    endloop
  endfacet
  facet normal 0.000000e+00 -1.000000e+00 0.000000e+00
    outer loop
      vertex   -2.490425e+01 2.602532e+01 2.500000e+01
      vertex   -2.490425e+01 2.602532e+01 0.000000e+00
      vertex   6.009575e+01 2.602532e+01 0.000000e+00
    endloop
  endfacet
  facet normal 1.000000e+00 0.000000e+00 -0.000000e+00
    outer loop
      vertex   6.009575e+01 2.802532e+01 0.000000e+00
      vertex   6.009575e+01 2.802532e+01 2.500000e+01
      vertex   6.009575e+01 2.602532e+01 2.500000e+01
    endloop
  endfacet
  facet normal 1.000000e+00 0.000000e+00 0.000000e+00
    outer loop
      vertex   6.009575e+01 2.602532e+01 2.500000e+01
      vertex   6.009575e+01 2.602532e+01 0.000000e+00
      vertex   6.009575e+01 2.802532e+01 0.000000e+00
    endloop
  endfacet
  facet normal 0.000000e+00 1.000000e+00 0.000000e+00
    outer loop
      vertex   -2.490425e+01 2.802532e+01 0.000000e+00
      vertex   -2.490425e+01 2.802532e+01 2.500000e+01
      vertex   6.009575e+01 2.802532e+01 2.500000e+01
    endloop
  endfacet
  facet normal 0.000000e+00 1.000000e+00 0.000000e+00
    outer loop
      vertex   6.009575e+01 2.802532e+01 2.500000e+01
      vertex   6.009575e+01 2.802532e+01 0.000000e+00
      vertex   -2.490425e+01 2.802532e+01 0.000000e+00
    endloop
  endfacet
  facet normal -1.000000e+00 0.000000e+00 0.000000e+00
    outer loop
      vertex   -2.490425e+01 2.602532e+01 0.000000e+00
      vertex   -2.490425e+01 2.602532e+01 2.500000e+01
      vertex   -2.490425e+01 2.802532e+01 2.500000e+01
    endloop
  endfacet
  facet normal -1.000000e+00 0.000000e+00 -0.000000e+00
    outer loop
      vertex   -2.490425e+01 2.802532e+01 2.500000e+01
      vertex   -2.490425e+01 2.802532e+01 0.000000e+00
      vertex   -2.490425e+01 2.602532e+01 0.000000e+00
    endloop
  endfacet
  facet normal 0.000000e+00 -0.000000e+00 1.000000e+00
    outer loop
      vertex   6.009575e+01 2.602532e+01 2.500000e+01
      vertex   6.009575e+01 2.802532e+01 2.500000e+01
      vertex   -2.490425e+01 2.802532e+01 2.500000e+01
    endloop
  endfacet
  facet normal 0.000000e+00 0.000000e+00 1.000000e+00
    outer loop
      vertex   -2.490425e+01 2.802532e+01 2.500000e+01
      vertex   -2.490425e+01 2.602532e+01 2.500000e+01
      vertex   6.009575e+01 2.602532e+01 2.500000e+01
    endloop
  endfacet
  facet normal 0.000000e+00 0.000000e+00 -1.000000e+00
    outer loop
      vertex   -2.490425e+01 2.602532e+01 0.000000e+00
      vertex   -2.490425e+01 2.802532e+01 0.000000e+00
      vertex   6.009575e+01 2.802532e+01 0.000000e+00
    endloop
  endfacet
  facet normal 0.000000e+00 -0.000000e+00 -1.000000e+00
    outer loop
      vertex   6.009575e+01 2.802532e+01 0.000000e+00
      vertex   6.009575e+01 2.602532e+01 0.000000e+00
      vertex   -2.490425e+01 2.602532e+01 0.000000e+00
    endloop
  endfacet
endsolid
