solid ascii
  facet normal 0.000000e+00 -1.000000e+00 0.000000e+00
    outer loop
      vertex   1.263138e+01 4.146232e+01 0.000000e+00
      vertex   1.263138e+01 4.146232e+01 -2.600000e+01
      vertex   3.963138e+01 4.146232e+01 -2.600000e+01
    endloop
  endfacet
  facet normal 0.000000e+00 -1.000000e+00 0.000000e+00
    outer loop
      vertex   3.963138e+01 4.146232e+01 -2.600000e+01
      vertex   3.963138e+01 4.146232e+01 0.000000e+00
      vertex   1.263138e+01 4.146232e+01 0.000000e+00
    endloop
  endfacet
  facet normal 1.000000e+00 0.000000e+00 0.000000e+00
    outer loop
      vertex   3.963138e+01 4.146232e+01 0.000000e+00
      vertex   3.963138e+01 4.146232e+01 -2.600000e+01
      vertex   3.963138e+01 4.346232e+01 -2.600000e+01
    endloop
  endfacet
  facet normal 1.000000e+00 0.000000e+00 -0.000000e+00
    outer loop
      vertex   3.963138e+01 4.346232e+01 -2.600000e+01
      vertex   3.963138e+01 4.346232e+01 0.000000e+00
      vertex   3.963138e+01 4.146232e+01 0.000000e+00
    endloop
  endfacet
  facet normal 0.000000e+00 1.000000e+00 0.000000e+00
    outer loop
      vertex   3.963138e+01 4.346232e+01 0.000000e+00
      vertex   3.963138e+01 4.346232e+01 -2.600000e+01
      vertex   1.263138e+01 4.346232e+01 -2.600000e+01
    endloop
  endfacet
  facet normal 0.000000e+00 1.000000e+00 0.000000e+00
    outer loop
      vertex   1.263138e+01 4.346232e+01 -2.600000e+01
      vertex   1.263138e+01 4.346232e+01 0.000000e+00
      vertex   3.963138e+01 4.346232e+01 0.000000e+00
    endloop
  endfacet
  facet normal -1.000000e+00 -1.734723e-15 -0.000000e+00
    outer loop
      vertex   1.263138e+01 4.346232e+01 0.000000e+00
      vertex   1.263138e+01 4.346232e+01 -2.600000e+01
      vertex   1.263138e+01 4.146232e+01 -2.600000e+01
    endloop
  endfacet
  facet normal -1.000000e+00 -1.734723e-15 0.000000e+00
    outer loop
      vertex   1.263138e+01 4.146232e+01 -2.600000e+01
      vertex   1.263138e+01 4.146232e+01 0.000000e+00
      vertex   1.263138e+01 4.346232e+01 0.000000e+00
    endloop
  endfacet
  facet normal 0.000000e+00 0.000000e+00 -1.000000e+00
    outer loop
      vertex   1.263138e+01 4.146232e+01 -2.600000e+01
      vertex   1.263138e+01 4.346232e+01 -2.600000e+01
      vertex   3.963138e+01 4.346232e+01 -2.600000e+01
    endloop
  endfacet
  facet normal 0.000000e+00 -0.000000e+00 -1.000000e+00
    outer loop
      vertex   3.963138e+01 4.346232e+01 -2.600000e+01
      vertex   3.963138e+01 4.146232e+01 -2.600000e+01
      vertex   1.263138e+01 4.146232e+01 -2.600000e+01
    endloop
  endfacet
  facet normal 0.000000e+00 -0.000000e+00 1.000000e+00
    outer loop
      vertex   3.963138e+01 4.146232e+01 0.000000e+00
      vertex   3.963138e+01 4.346232e+01 0.000000e+00
      vertex   1.263138e+01 4.346232e+01 0.000000e+00
    endloop
  endfacet
  facet normal 0.000000e+00 0.000000e+00 1.000000e+00
    outer loop
      vertex   1.263138e+01 4.346232e+01 0.000000e+00
      vertex   1.263138e+01 4.146232e+01 0.000000e+00
      vertex   3.963138e+01 4.146232e+01 0.000000e+00
    endloop
  endfacet
endsolid
